<?xml version="1.0" encoding="UTF-8" standalone="no"?>
<svg viewBox="0 0 50.000565 50.000565" xmlns="http://www.w3.org/2000/svg">
<defs>
<linearGradient gradientTransform="matrix(0,-.966491,1.450176,0,946.81637,1094.5665)" gradientUnits="userSpaceOnUse" id="linearGradient3114" x1="426.73865" x2="398.03879">
<stop offset="0" stop-color="#fff"/>
<stop offset="1" stop-color="#f1f1f1"/>
</linearGradient>
<linearGradient gradientUnits="userSpaceOnUse" id="linearGradient3648-7-1" x2="0" y1="796.31158" y2="808.75488">
<stop offset="0" stop-color="#004c91"/>
<stop offset="1" stop-color="#00d7ff"/>
</linearGradient>
<linearGradient gradientUnits="userSpaceOnUse" id="linearGradient3048-7" x2="0" y1="808.20612" y2="780.18079">
<stop offset="0" stop-color="#fff" stop-opacity=".5"/>
<stop offset=".3125" stop-color="#fff" stop-opacity="0"/>
<stop offset=".7478" stop-color="#fff" stop-opacity="0"/>
<stop offset="1" stop-color="#fff" stop-opacity=".75"/>
</linearGradient>
<radialGradient cx="393.28906" cy="808.21918" gradientUnits="userSpaceOnUse" id="radialGradient3970-8" r="16.25">
<stop offset="0" stop-color="#a8ffff" stop-opacity=".5"/>
<stop offset="1" stop-color="#a8ffff" stop-opacity="0"/>
</radialGradient>
<radialGradient cx="494.67642" cy="810.38684" gradientTransform="matrix(.062035,1.3314005e-7,-1.3368062e-7,.062287,442.53831,768.32631)" gradientUnits="userSpaceOnUse" id="radialGradient3140" r="20.66967">
<stop offset="0" stop-color="#fff" stop-opacity="0"/>
<stop offset="1" stop-color="#fff" stop-opacity=".75"/>
</radialGradient>
</defs>
<g transform="matrix(22.709098,0,0,22.709098,-10720.72068,-18567.5059)">
<path d="m409.28571,792.00507c0,8.97462-7.27538,16.25-16.25,16.25s-16.25-7.27538-16.25-16.25 7.27537-16.25 16.25-16.25 16.25,7.27537 16.25,16.25z" fill="url(#linearGradient3648-7-1)" stroke="#000091" stroke-width="1.00499" transform="matrix(.065714,0,0,.065714,447.36199,766.67888)"/>
<path d="m409.28571,792.00507c0,8.97462-7.27538,16.25-16.25,16.25s-16.25-7.27538-16.25-16.25 7.27537-16.25 16.25-16.25 16.25,7.27537 16.25,16.25z" fill="none" stroke="url(#linearGradient3048-7)" stroke-width="1.07143" transform="matrix(.061649,0,0,.061649,448.95972,769.89847)"/>
<path d="m409.28571,792.00507c0,8.97462-7.27538,16.25-16.25,16.25s-16.25-7.27538-16.25-16.25 7.27537-16.25 16.25-16.25 16.25,7.27537 16.25,16.25z" fill="url(#radialGradient3970-8)" transform="matrix(.063682,0,0,.063682,448.16094,768.28878)"/>
<path d="m472.15527,818.6944c-.002.28939.68468-.16339.99234-.15996 .30277.003 1.07727.48275 1.07727.12441s-.3658-.96862-1.02364-.96862-1.04351.55895-1.04597,1.00417z" fill="url(#radialGradient3140)"/>
</g>
<g transform="matrix(.05,0,0,.051734,-58.74747,-10.9185)">
<path d="m1657.1425,410.88817c-14.3429.23621-28.8225,5.50654-40,16.30953l-233.75,225.91731c-5.5888,5.40151-9.6374,11.55036-12.5,18.12171-.075.17186.073.43167 0,.60406-4.6134,6.74636-7.5,14.42698-7.5,22.3501s2.8866,14.9997 7.5,21.74606c.076.18059-.078.42401 0,.60405 2.8626,6.57135 6.9112,12.72021 12.5,18.12171l233.75,226.52137c22.3551,21.60597 57.769,22.09007 79.375,1.20811s21.1051-55.10923-1.25-76.71524l-143.125-138.32904h355c44.3108,0 79.375-23.62539 79.375-53.15702s-35.0642-53.15701-79.375-53.15701h-355l143.125-138.32904c22.3551-21.60601 22.856-55.83323 1.25-76.71524-10.803-10.441-25.0321-15.33763-39.375-15.10142z" fill="url(#linearGradient3114)" stroke="#808080" stroke-width="5.91942"/>
</g>
</svg>
