<?xml version="1.0" encoding="UTF-8" standalone="no"?>
<svg
   xmlns:dc="http://purl.org/dc/elements/1.1/"
   xmlns:cc="http://creativecommons.org/ns#"
   xmlns:rdf="http://www.w3.org/1999/02/22-rdf-syntax-ns#"
   xmlns:svg="http://www.w3.org/2000/svg"
   xmlns="http://www.w3.org/2000/svg"
   xmlns:sodipodi="http://sodipodi.sourceforge.net/DTD/sodipodi-0.dtd"
   xmlns:inkscape="http://www.inkscape.org/namespaces/inkscape"
   viewBox="0 0 50.000565 50.000565"
   id="svg2"
   version="1.1"
   inkscape:version="0.91 r13725"
   sodipodi:docname="forward-button.svg">
  <metadata
     id="metadata51">
    <rdf:RDF>
      <cc:Work
         rdf:about="">
        <dc:format>image/svg+xml</dc:format>
        <dc:type
           rdf:resource="http://purl.org/dc/dcmitype/StillImage" />
        <dc:title></dc:title>
      </cc:Work>
    </rdf:RDF>
  </metadata>
  <sodipodi:namedview
     pagecolor="#ffffff"
     bordercolor="#666666"
     borderopacity="1"
     objecttolerance="10"
     gridtolerance="10"
     guidetolerance="10"
     inkscape:pageopacity="0"
     inkscape:pageshadow="2"
     inkscape:window-width="1672"
     inkscape:window-height="1041"
     id="namedview49"
     showgrid="false"
     inkscape:zoom="4.7199467"
     inkscape:cx="25.000282"
     inkscape:cy="25.000282"
     inkscape:window-x="0"
     inkscape:window-y="0"
     inkscape:window-maximized="0"
     inkscape:current-layer="svg2" />
  <defs
     id="defs4">
    <linearGradient
       gradientTransform="matrix(0,-0.966491,1.450176,0,946.81637,1094.5665)"
       gradientUnits="userSpaceOnUse"
       id="linearGradient3114"
       x1="426.73865"
       x2="398.03879">
      <stop
         offset="0"
         stop-color="#fff"
         id="stop7" />
      <stop
         offset="1"
         stop-color="#f1f1f1"
         id="stop9" />
    </linearGradient>
    <linearGradient
       gradientUnits="userSpaceOnUse"
       id="linearGradient3648-7-1"
       x2="0"
       y1="796.31158"
       y2="808.75488">
      <stop
         offset="0"
         stop-color="#004c91"
         id="stop12" />
      <stop
         offset="1"
         stop-color="#00d7ff"
         id="stop14" />
    </linearGradient>
    <linearGradient
       gradientUnits="userSpaceOnUse"
       id="linearGradient3048-7"
       x2="0"
       y1="808.20612"
       y2="780.18079">
      <stop
         offset="0"
         stop-color="#fff"
         stop-opacity=".5"
         id="stop17" />
      <stop
         offset=".3125"
         stop-color="#fff"
         stop-opacity="0"
         id="stop19" />
      <stop
         offset=".7478"
         stop-color="#fff"
         stop-opacity="0"
         id="stop21" />
      <stop
         offset="1"
         stop-color="#fff"
         stop-opacity=".75"
         id="stop23" />
    </linearGradient>
    <radialGradient
       cx="393.28906"
       cy="808.21918"
       gradientUnits="userSpaceOnUse"
       id="radialGradient3970-8"
       r="16.25">
      <stop
         offset="0"
         stop-color="#a8ffff"
         stop-opacity=".5"
         id="stop26" />
      <stop
         offset="1"
         stop-color="#a8ffff"
         stop-opacity="0"
         id="stop28" />
    </radialGradient>
    <radialGradient
       cx="494.67642"
       cy="810.38684"
       gradientTransform="matrix(0.062035,1.3314005e-7,-1.3368062e-7,0.062287,442.53831,768.32631)"
       gradientUnits="userSpaceOnUse"
       id="radialGradient3140"
       r="20.66967">
      <stop
         offset="0"
         stop-color="#fff"
         stop-opacity="0"
         id="stop31" />
      <stop
         offset="1"
         stop-color="#fff"
         stop-opacity=".75"
         id="stop33" />
    </radialGradient>
  </defs>
  <g
     transform="matrix(-22.709098,0,0,22.709098,10770.713,-18567.506)"
     id="g35">
    <path
       d="m 409.28571,792.00507 c 0,8.97462 -7.27538,16.25 -16.25,16.25 -8.97462,0 -16.25,-7.27538 -16.25,-16.25 0,-8.97462 7.27537,-16.25 16.25,-16.25 8.97463,0 16.25,7.27537 16.25,16.25 z"
       transform="matrix(0.065714,0,0,0.065714,447.36199,766.67888)"
       id="path37"
       style="fill:url(#linearGradient3648-7-1);stroke:#000091;stroke-width:1.00498998"
       inkscape:connector-curvature="0" />
    <path
       d="m 409.28571,792.00507 c 0,8.97462 -7.27538,16.25 -16.25,16.25 -8.97462,0 -16.25,-7.27538 -16.25,-16.25 0,-8.97462 7.27537,-16.25 16.25,-16.25 8.97463,0 16.25,7.27537 16.25,16.25 z"
       transform="matrix(0.061649,0,0,0.061649,448.95972,769.89847)"
       id="path39"
       style="fill:none;stroke:url(#linearGradient3048-7);stroke-width:1.07142997"
       inkscape:connector-curvature="0" />
    <path
       d="m 409.28571,792.00507 c 0,8.97462 -7.27538,16.25 -16.25,16.25 -8.97462,0 -16.25,-7.27538 -16.25,-16.25 0,-8.97462 7.27537,-16.25 16.25,-16.25 8.97463,0 16.25,7.27537 16.25,16.25 z"
       transform="matrix(0.063682,0,0,0.063682,448.16094,768.28878)"
       id="path41"
       style="fill:url(#radialGradient3970-8)"
       inkscape:connector-curvature="0" />
    <path
       d="m 472.15527,818.6944 c -0.002,0.28939 0.68468,-0.16339 0.99234,-0.15996 0.30277,0.003 1.07727,0.48275 1.07727,0.12441 0,-0.35834 -0.3658,-0.96862 -1.02364,-0.96862 -0.65784,0 -1.04351,0.55895 -1.04597,1.00417 z"
       id="path43"
       style="fill:url(#radialGradient3140)"
       inkscape:connector-curvature="0" />
  </g>
  <g
     transform="matrix(-0.05,0,0,0.051734,108.73949,-10.9185)"
     id="g45">
    <path
       d="m 1657.1425,410.88817 c -14.3429,0.23621 -28.8225,5.50654 -40,16.30953 l -233.75,225.91731 c -5.5888,5.40151 -9.6374,11.55036 -12.5,18.12171 -0.075,0.17186 0.073,0.43167 0,0.60406 -4.6134,6.74636 -7.5,14.42698 -7.5,22.3501 0,7.92312 2.8866,14.9997 7.5,21.74606 0.076,0.18059 -0.078,0.42401 0,0.60405 2.8626,6.57135 6.9112,12.72021 12.5,18.12171 l 233.75,226.52137 c 22.3551,21.60597 57.769,22.09007 79.375,1.20811 21.606,-20.88196 21.1051,-55.10923 -1.25,-76.71524 l -143.125,-138.32904 355,0 c 44.3108,0 79.375,-23.62539 79.375,-53.15702 0,-29.53163 -35.0642,-53.15701 -79.375,-53.15701 l -355,0 143.125,-138.32904 c 22.3551,-21.60601 22.856,-55.83323 1.25,-76.71524 -10.803,-10.441 -25.0321,-15.33763 -39.375,-15.10142 z"
       id="path47"
       style="fill:url(#linearGradient3114);stroke:#808080;stroke-width:5.91941977"
       inkscape:connector-curvature="0" />
  </g>
</svg>
